<?xml version="1.0" encoding="utf-8"?>
<!-- Generator: Adobe Illustrator 20.1.0, SVG Export Plug-In . SVG Version: 6.00 Build 0)  -->
<svg version="1.1" id="Layer_1" xmlns="http://www.w3.org/2000/svg" xmlns:xlink="http://www.w3.org/1999/xlink" x="0px" y="0px"
	 viewBox="0 0 178.2 178.1" style="enable-background:new 0 0 178.2 178.1;" xml:space="preserve">
<style type="text/css">
	.st0{fill:#F8CBCB;stroke:#000000;stroke-width:2;stroke-linecap:round;stroke-linejoin:round;stroke-miterlimit:10;}
	.st1{fill:none;stroke:#000000;stroke-linecap:round;stroke-linejoin:round;stroke-miterlimit:10;}
</style>
<path class="st0" d="M89.1,177.1C40.5,177.1,1,137.6,1,89S40.5,1,89.1,1s88.1,39.5,88.1,88.1S137.7,177.1,89.1,177.1z"/>
<path class="st1" d="M89.1,173.5c-46.5,0-84.4-37.9-84.4-84.4S42.6,4.7,89.1,4.7s84.4,37.8,84.4,84.4S135.6,173.5,89.1,173.5z"/>
<path class="st1" d="M89.1,169.8c-44.5,0-80.7-36.2-80.7-80.7S44.6,8.3,89.1,8.3s80.7,36.2,80.7,80.7S133.6,169.8,89.1,169.8z"/>
<path class="st1" d="M89.1,166.1c-42.5,0-77-34.6-77-77s34.6-77,77-77s77,34.6,77,77S131.6,166.1,89.1,166.1z"/>
<path class="st1" d="M89.1,162.4c-40.5,0-73.4-32.9-73.4-73.4s32.9-73.4,73.4-73.4s73.4,33,73.4,73.5S129.6,162.4,89.1,162.4z"/>
<path class="st1" d="M89.1,158.8c-38.4,0-69.7-31.3-69.7-69.7s31.3-69.7,69.7-69.7s69.7,31.3,69.7,69.7S127.5,158.8,89.1,158.8z"/>
<path class="st1" d="M89.1,155.1c-36.4,0-66-29.6-66-66s29.6-66,66-66s66,29.6,66,66S125.5,155.1,89.1,155.1z"/>
<path class="st1" d="M89.1,151.4c-34.4,0-62.3-28-62.3-62.3s28-62.3,62.3-62.3s62.3,28,62.3,62.3S123.5,151.4,89.1,151.4z"/>
<path class="st1" d="M89.1,147.7c-32.4,0-58.7-26.3-58.7-58.7s26.3-58.7,58.7-58.7s58.7,26.3,58.7,58.7S121.5,147.7,89.1,147.7z"/>
<path class="st1" d="M89.1,144.1c-30.3,0-55-24.7-55-55s24.7-55,55-55s55,24.7,55,55S119.4,144.1,89.1,144.1z"/>
<path class="st1" d="M89.1,140.4c-28.3,0-51.3-23-51.3-51.3s23-51.3,51.3-51.3s51.3,23,51.3,51.3S117.4,140.4,89.1,140.4z"/>
<path class="st1" d="M89.1,136.7c-26.3,0-47.6-21.4-47.6-47.6s21.4-47.6,47.6-47.6s47.6,21.4,47.6,47.6S115.4,136.7,89.1,136.7z"/>
<path class="st1" d="M89.1,133c-24.2,0-44-19.7-44-44s19.7-44,44-44s44,19.7,44,44S113.4,133,89.1,133z"/>
<path class="st1" d="M89.1,129.4c-22.2,0-40.3-18.1-40.3-40.3s18.1-40.3,40.3-40.3s40.3,18.1,40.3,40.3S111.3,129.4,89.1,129.4z"/>
<path class="st1" d="M89.1,125.7c-20.2,0-36.6-16.4-36.6-36.6s16.4-36.6,36.6-36.6s36.6,16.4,36.6,36.6S109.3,125.7,89.1,125.7z"/>
<path class="st1" d="M89.1,122c-18.2,0-32.9-14.8-32.9-32.9S71,56.2,89.1,56.2S122,71,122,89.1S107.3,122,89.1,122z"/>
<path class="st0" d="M89.1,118.3c-16.1,0-29.3-13.1-29.3-29.3s13.1-29.3,29.3-29.3s29.3,13.1,29.3,29.3S105.2,118.3,89.1,118.3z"/>
</svg>
