<?xml version="1.0" encoding="utf-8"?>
<!-- Generator: Adobe Illustrator 20.1.0, SVG Export Plug-In . SVG Version: 6.00 Build 0)  -->
<svg version="1.1" id="Layer_1" xmlns="http://www.w3.org/2000/svg" xmlns:xlink="http://www.w3.org/1999/xlink" x="0px" y="0px"
	 viewBox="0 0 222.2 178.1" style="enable-background:new 0 0 222.2 178.1;" xml:space="preserve">
<style type="text/css">
	.st0{fill:#F8CBCB;stroke:#000000;stroke-width:2;stroke-linecap:round;stroke-linejoin:round;stroke-miterlimit:10;}
	.st1{fill:none;stroke:#000000;stroke-linecap:round;stroke-linejoin:round;stroke-miterlimit:10;}
</style>
<path class="st0" d="M107.6,177.1c-48.6,0-88.1-39.5-88.1-88.1S59,1,107.6,1s88.1,39.5,88.1,88.1S156.2,177.1,107.6,177.1z"/>
<path class="st1" d="M107.6,173.5c-46.5,0-84.4-37.9-84.4-84.4S61.1,4.7,107.6,4.7S192,42.5,192,89.1S154.1,173.5,107.6,173.5z"/>
<path class="st1" d="M107.6,169.8c-44.5,0-80.7-36.2-80.7-80.7S63.1,8.3,107.6,8.3s80.7,36.2,80.7,80.7S152.1,169.8,107.6,169.8z"/>
<path class="st1" d="M107.6,166.1c-42.5,0-77-34.6-77-77s34.6-77,77-77s77,34.6,77,77S150.1,166.1,107.6,166.1z"/>
<path class="st1" d="M107.6,162.4c-40.5,0-73.4-32.9-73.4-73.4s32.9-73.4,73.4-73.4s73.4,33,73.4,73.5S148.1,162.4,107.6,162.4z"/>
<path class="st1" d="M107.6,158.8c-38.4,0-69.7-31.3-69.7-69.7s31.3-69.7,69.7-69.7s69.7,31.3,69.7,69.7S146,158.8,107.6,158.8z"/>
<path class="st1" d="M107.6,155.1c-36.4,0-66-29.6-66-66s29.6-66,66-66s66,29.6,66,66S144,155.1,107.6,155.1z"/>
<path class="st1" d="M107.6,151.4c-34.4,0-62.3-28-62.3-62.3s28-62.3,62.3-62.3s62.3,28,62.3,62.3S142,151.4,107.6,151.4z"/>
<path class="st1" d="M107.6,147.7c-32.4,0-58.7-26.3-58.7-58.7s26.3-58.7,58.7-58.7s58.7,26.3,58.7,58.7S140,147.7,107.6,147.7z"/>
<path class="st1" d="M107.6,144.1c-30.3,0-55-24.7-55-55s24.7-55,55-55s55,24.7,55,55S137.9,144.1,107.6,144.1z"/>
<path class="st1" d="M107.6,140.4c-28.3,0-51.3-23-51.3-51.3s23-51.3,51.3-51.3s51.3,23,51.3,51.3S135.9,140.4,107.6,140.4z"/>
<path class="st1" d="M107.6,136.7c-26.3,0-47.6-21.4-47.6-47.6s21.4-47.6,47.6-47.6s47.6,21.4,47.6,47.6S133.9,136.7,107.6,136.7z"
	/>
<path class="st1" d="M107.6,133c-24.2,0-44-19.7-44-44s19.7-44,44-44s44,19.7,44,44S131.9,133,107.6,133z"/>
<path class="st1" d="M107.6,129.4c-22.2,0-40.3-18.1-40.3-40.3s18.1-40.3,40.3-40.3s40.3,18.1,40.3,40.3S129.8,129.4,107.6,129.4z"
	/>
<path class="st1" d="M107.6,125.7c-20.2,0-36.6-16.4-36.6-36.6s16.4-36.6,36.6-36.6s36.6,16.4,36.6,36.6S127.8,125.7,107.6,125.7z"
	/>
<path class="st1" d="M107.6,122c-18.2,0-32.9-14.8-32.9-32.9s14.8-32.9,32.9-32.9s32.9,14.8,32.9,32.9S125.8,122,107.6,122z"/>
<path class="st0" d="M107.6,118.3c-16.1,0-29.3-13.1-29.3-29.3s13.1-29.3,29.3-29.3s29.3,13.1,29.3,29.3S123.7,118.3,107.6,118.3z"
	/>
</svg>
